<?xml version="1.0" encoding="UTF-8" standalone="no"?>
<!-- Created with Inkscape (http://www.inkscape.org/) -->

<svg
   width="16mm"
   height="8mm"
   viewBox="0 0 16 8"
   version="1.1"
   id="svg201"
   inkscape:version="1.2.2 (b0a8486541, 2022-12-01)"
   sodipodi:docname="webgames.svg"
   xmlns:inkscape="http://www.inkscape.org/namespaces/inkscape"
   xmlns:sodipodi="http://sodipodi.sourceforge.net/DTD/sodipodi-0.dtd"
   xmlns="http://www.w3.org/2000/svg"
   xmlns:svg="http://www.w3.org/2000/svg">
  <sodipodi:namedview
     id="namedview203"
     pagecolor="#ffffff"
     bordercolor="#000000"
     borderopacity="0.25"
     inkscape:showpageshadow="2"
     inkscape:pageopacity="0.0"
     inkscape:pagecheckerboard="0"
     inkscape:deskcolor="#d1d1d1"
     inkscape:document-units="mm"
     showgrid="false"
     inkscape:zoom="11.944557"
     inkscape:cx="24.069541"
     inkscape:cy="15.655667"
     inkscape:window-width="1920"
     inkscape:window-height="1008"
     inkscape:window-x="0"
     inkscape:window-y="520"
     inkscape:window-maximized="1"
     inkscape:current-layer="layer1" />
  <defs
     id="defs198" />
  <g
     inkscape:label="Capa 1"
     inkscape:groupmode="layer"
     id="layer1">
    <path
       style="fill:#000000;stroke-width:0.264583"
       id="path277"
       d="m 2.6800537,5.9251802 c -0.00976,0.1412533 8.467e-4,0.2824355 0.0032,0.4237669 0.00412,0.1871634 -0.012327,0.3740195 -0.012517,0.5610384 -0.012925,0.5070658 -0.1746799,0.3642897 0.8893413,0.7680314 0.1342618,0.050946 0.2855614,-0.030685 0.4283422,-0.046027 1.4648362,-0.085011 2.9328879,-0.1059212 4.399871,-0.087369 0.8566248,0.010832 1.2792146,0.027823 2.1108868,0.054223 0.575973,0.02004 1.151465,0.050509 1.726982,0.080277 0.175966,0.0091 0.350699,0.02209 0.526596,0.010798 0.0168,-0.00654 0.03697,-0.00759 0.05038,-0.019619 0.03014,-0.027028 0.04096,-0.073193 0.03422,-0.1114941 -0.0052,-0.029711 -0.07917,-0.1202828 -0.09581,-0.1434259 -0.1266,-0.1789819 -0.239599,-0.3667746 -0.33002,-0.5665263 -0.03102,-0.077695 -0.06306,-0.1555261 -0.08354,-0.2368156 -0.0086,-0.036794 -0.0089,-0.074641 -0.0091,-0.1122077 6.09e-4,-0.045072 4.24e-4,-0.090122 -5.82e-4,-0.1351872 0.002,-0.456606 0.0089,-0.1432415 -0.863463,-0.6637608 -0.226934,0.031701 -0.454828,0.0556 -0.682495,0.081532 -0.09231,0.00847 -0.184666,0.016362 -0.276917,0.0254 -0.513139,0.050269 -0.490467,0.05888 -1.0660843,0.0829 -0.6917108,0.028864 -1.3847236,0.02295 -2.0768178,0.021466 -0.7892772,-0.00299 -1.5792518,0.012121 -2.3678173,0.047488 -0.021016,9.525e-4 -1.0127552,0.055154 -1.0492981,0.05715 -0.6207125,0.033102 -1.2408799,0.075323 -1.8613466,0.1125103 -0.1351086,0.00709 -0.076198,0.00732 -0.1766927,0.00384 0,0 0.7936335,0.561367 0.7936335,0.561367 v 0 c 0.067501,-0.026593 0.024657,-0.01207 0.1310931,-0.035115 C 3.3839249,6.5541281 3.9519993,6.486046 4.5213448,6.436757 5.2351927,6.383052 4.8118962,6.411772 5.5538905,6.369141 6.05775,6.340191 6.1443868,6.330983 6.6591998,6.314315 6.8605945,6.307795 7.0620943,6.305055 7.2635285,6.299885 7.4637673,6.294745 7.663987,6.288899 7.8642163,6.283407 8.5581683,6.27231 9.252444,6.258063 9.946527,6.265085 c 0.230543,0.00233 0.461009,0.00962 0.691514,0.014433 0.179543,0.00591 0.359008,0.015158 0.53863,0.01774 0.102134,0.00146 0.204255,-0.00373 0.306382,-0.00559 0.129704,-0.00297 0.287663,-0.00687 0.419965,-0.00895 0.07426,-0.00116 0.211492,-0.011097 0.286585,0.00981 0.01346,0.00375 0.02503,0.012404 0.03754,0.018608 -0.270695,-0.1644361 -0.544136,-0.3244079 -0.812043,-0.49332 -0.0065,-0.0041 0.01623,-0.00863 0.02263,-0.00438 0.0061,0.00405 0.0024,0.091064 0.003,0.1036564 -0.0014,0.044299 -0.0021,0.088595 -0.0027,0.1329073 -10e-4,0.044256 -0.0027,0.088733 0.0032,0.1327492 0.01678,0.097185 0.06361,0.1837195 0.104376,0.2726219 0.0984,0.1948034 0.209835,0.3822118 0.316359,0.5725451 0.01068,0.019677 0.02095,0.039586 0.03205,0.059033 0.01899,0.033272 0.03074,0.074513 0.07351,0.055438 0.0072,-0.00322 0.01442,-0.0074 0.01954,-0.013425 0.0046,-0.00536 -0.01185,0.00757 -0.01778,0.011356 -0.12619,0.042008 -0.258076,0.055969 -0.390071,0.069901 -0.491328,0.051861 -0.985327,0.074993 -1.478557,0.099112 C 9.8086644,7.3202601 9.5167999,7.33364 9.2247721,7.3421115 8.0027895,7.3775596 6.7815991,7.3809362 5.5596419,7.3398361 5.1584224,7.3263397 4.7572464,7.3094293 4.3565738,7.2845149 4.0405288,7.2648616 3.7254211,7.2322771 3.4098447,7.2061582 3.2130534,7.1698733 2.7597139,6.9063253 2.8194709,7.0973028 c 0.08463,0.2704677 0.4636709,0.326616 0.7050008,0.4751917 0.011954,0.00736 -0.00159,-0.028047 -0.00151,-0.042084 3.704e-4,-0.061666 0.00729,-0.1233752 0.00204,-0.1850832 8.42e-5,-0.1898993 -0.015256,-0.3797675 -0.00724,-0.5697775 0.00583,-0.1305258 0.014811,-0.2618116 0.03722,-0.3906282 0,0 -0.874908,-0.4597379 -0.874908,-0.4597379 z" />
    <path
       style="fill:#000000;stroke-width:0.264583"
       id="path279"
       d="m 8.7409376,3.0562132 c 0.012647,0.1054129 0.010991,0.2121966 0.00873,0.3181926 -0.00667,0.086861 -0.00297,0.1734577 -5.19e-5,0.2603778 5.557e-4,0.091048 -0.00435,0.1819167 0.00357,0.2727333 0.032495,0.4421537 0.1532477,0.2196812 0.8886068,0.6411542 0.1195004,-0.015013 0.2387865,-0.033826 0.3581668,-0.050766 0.08956,-0.012642 0.1797187,-0.019283 0.2700997,-0.021034 0.08663,-0.00159 0.173135,-0.00388 0.259793,-0.00273 0.06509,0.00135 0.130169,0.00319 0.195254,0.00479 0.08551,0.00445 0.08762,-9.79e-4 0.11566,-0.093469 -8.73e-4,-0.01402 -4.23e-4,-0.028184 -0.0026,-0.042059 -0.0099,-0.062612 -0.03416,-0.1255903 -0.05358,-0.185447 -0.04105,-0.1265438 -0.01712,-0.048225 -0.05616,-0.1822659 -0.03022,-0.1086966 -0.04526,-0.2204918 -0.05578,-0.3325434 -0.0025,-0.026884 -0.0085,-0.130938 -0.01593,-0.1633649 -0.0047,-0.020685 -0.01414,-0.040007 -0.02121,-0.06001 -0.290318,-0.1724502 -0.572035,-0.3602818 -0.870955,-0.5173501 -0.025067,-0.013171 -0.05561,0.010726 -0.08346,0.015851 -0.1258001,0.023146 -0.2516849,0.045766 -0.3775279,0.068682 -0.099818,0.02205 -0.2006833,0.038134 -0.3020991,0.050503 0,0 0.7905821,0.5550017 0.7905821,0.5550017 v 0 c 0.096649,-0.020124 0.1929226,-0.041909 0.2895439,-0.06216 0.102605,-0.020143 0.269268,-0.060013 0.370991,-0.045212 0.02473,0.0036 0.04732,0.01605 0.07098,0.024074 -0.259708,-0.1572678 -0.519416,-0.3145356 -0.7791238,-0.4718034 0.015359,0.00899 0.035318,0.012795 0.04608,0.026969 0.025704,0.033856 0.035885,0.1286116 0.040597,0.1621092 0.015973,0.1135409 0.025418,0.2280081 0.044742,0.3411045 0.026096,0.1216295 0.059278,0.2417995 0.086937,0.3629131 0.06904,-0.047832 -0.010369,-0.030815 -0.037036,-0.032453 -0.061032,0.00143 -0.1220607,0.00296 -0.183098,0.00414 -0.090242,0.00111 -0.1805339,-0.00309 -0.2706497,0.00204 -0.086824,0.00841 -0.172375,0.025765 -0.2584794,0.039336 -0.099796,0.014507 -0.2240896,0.040163 -0.3228845,0.012004 -0.00968,-0.00276 -0.018243,-0.00854 -0.027363,-0.012806 0.2747854,0.1610246 0.5513869,0.3189893 0.8243562,0.4830736 0.00986,0.00593 -0.025559,0.00214 -0.034054,-0.00561 -0.020042,-0.018307 -0.019383,-0.052969 -0.022704,-0.076754 -0.00451,-0.037799 -0.012533,-0.075817 -0.015198,-0.1137732 -0.0036,-0.051256 3.704e-4,-0.1029298 -0.0013,-0.1542277 0.00302,-0.086943 0.0065,-0.1735307 -5.18e-5,-0.2604304 -0.00214,-0.1029883 -0.00451,-0.2069733 0.00873,-0.3092929 0,0 -0.8821529,-0.4494792 -0.8821529,-0.4494792 z" />
    <path
       style="fill:#000000;stroke-width:0.264583"
       id="path291"
       d="m 10.640228,2.834895 c 0.176258,-0.1676969 0.359213,-0.3349895 0.556206,-0.4773709 0.150622,-0.1088662 0.309087,-0.2066105 0.467441,-0.3038891 0.320597,-0.1969472 0.58089,-0.3326964 0.908569,-0.5102481 0,0 -0.616842,-0.3998132 -0.616842,-0.3998132 v 0 c -0.448898,0.2874112 -0.89911,0.5764699 -1.376955,0.8146285 -0.153783,0.076646 -0.313958,0.1397417 -0.470509,0.210563 -0.1851373,0.083753 -0.1701735,0.0773 -0.3043004,0.1437099 0,0 0.8363904,0.5224199 0.8363904,0.5224199 z" />
    <path
       style="fill:#000000;stroke-width:0.264583"
       id="path295"
       d="m 11.846025,3.6473214 c 0.04231,-0.020574 0.08359,-0.043402 0.126928,-0.06172 0.190097,-0.08036 0.385019,-0.1487913 0.577847,-0.2223577 0.5009,-0.1911006 1.001959,-0.3816405 1.503888,-0.5700265 0.194602,-0.072647 0.389204,-0.1452933 0.583806,-0.2179399 0,0 -0.542619,-0.3659442 -0.542619,-0.3659442 v 0 c -0.197554,0.070407 -0.395108,0.1408147 -0.592662,0.2112221 -0.531555,0.1775838 -1.062029,0.3554614 -1.604316,0.4981684 -0.224936,0.059193 -0.449257,0.1123641 -0.67869,0.1499682 -0.05858,0.0096 -0.117896,0.013978 -0.176844,0.020966 0,0 0.802662,0.5576647 0.802662,0.5576636 z" />
    <path
       style="fill:#000000;stroke-width:0.264583"
       id="path299"
       d="m 12.938599,4.4896555 c 0.378882,-0.2256186 0.799881,-0.3687561 1.210666,-0.5231376 0.210516,-0.079116 0.421297,-0.1575252 0.631945,-0.2362877 0,0 -0.507367,-0.3452048 -0.507367,-0.3452048 v 0 c -0.234022,0.063086 -0.46837,0.1249767 -0.702067,0.1892575 -0.481012,0.1323073 -0.958313,0.2846512 -1.45198,0.3646022 0,0 0.818803,0.5507704 0.818803,0.5507704 z" />
    <path
       style="fill:#000000;stroke-width:0.264583"
       id="path307"
       d="m 1.2977097,5.9703652 c -0.088826,0.016044 -0.1794149,0.017333 -0.2689776,0.026286 -0.0874518,0.00874 -0.17439586,0.022648 -0.26203451,0.029262 -0.18986042,0.014327 -0.65282179,0.029174 -0.82791825,0.035577 0,0 0.60438568,0.4377065 0.60438568,0.4377065 v 0 c 0.1573789,7.938e-4 0.31478281,-5.556e-4 0.47213668,0.00235 0.1424714,0.00265 0.2849207,0.00738 0.4272482,0.014301 0.1124126,0.00547 0.2244619,0.017134 0.336861,0.022873 0.1056203,0.00539 0.2117376,-6.49e-5 0.3174268,0.00108 0,0 -0.799128,-0.569433 -0.799128,-0.569433 z" />
    <path
       style="fill:#000000;stroke-width:0.264583"
       id="path311"
       d="m 1.3194366,6.8137727 c -0.1390951,0.019203 -0.2796079,0.025146 -0.41948844,0.035369 -0.12796049,0.00935 -0.25568114,0.022289 -0.38379847,0.029165 -0.37712297,0.020238 -0.73064003,0.023043 -1.10929136,0.030004 0,0 0.53716806,0.3902755 0.53716806,0.3902755 v 0 c 0.43053494,0.00753 0.76463561,0.010028 1.19188391,0.030003 0.1548303,0.00724 0.3093694,0.019754 0.4640828,0.029165 0.1723406,0.010485 0.3450217,0.017624 0.5168504,0.035369 0,0 -0.7974069,-0.5793499 -0.7974069,-0.5793505 z" />
  </g>
</svg>
